# xmcd
#
# Track frame offsets:
#	150
#	16667
#	27415
#	40167
#	59660
#	74467
#	86222
#	102240
#	116755
#	131362
#	143535
#	156595
#
# Disc length: 2297 seconds
#
# Revision: 23
# Processed by: cddbd v1.5.2PL0 Copyright (c) Steve Scherf et al.
# Submitted via: EasyCDDAExtractor 15.2.5.1
#
DISCID=a608f70c
DTITLE=Various Artist - I lass Di net gehn - CD01
DYEAR=1900
DGENRE=
TTITLE0=Die Alpenfrieden - I laß di net geh'n
TTITLE1=Kastelruther Spatzen - Viel Spaß und Freude
TTITLE2=Nickelsdorfer Buam - S' Madel mit die blonden Haar
TTITLE3=Almrauschklang - Komm doch zurück
TTITLE4=Chris Wolff - Auf der Straße zur Sonne
TTITLE5=Freihart Buam - Heut geh' i net in die Disco
TTITLE6=Andreas and Bernd - Streit oder Frieden
TTITLE7=Walter Oberbrandacher - Du bist zur Liebe geboren
TTITLE8=Weigheimer Buam - Der alte Mann
TTITLE9=Renate and Werner Leismann - Frühlingsträume
TTITLE10=Alpentrio Tirol - Ganz allein im Regen
TTITLE11=Albin Berger - Du hast im Schlaf seinen Namen genannt
EXTD=
EXTT0=
EXTT1=
EXTT2=
EXTT3=
EXTT4=
EXTT5=
EXTT6=
EXTT7=
EXTT8=
EXTT9=
EXTT10=
EXTT11=
PLAYORDER=
